<svg version="1.1" xmlns="http://www.w3.org/2000/svg" xmlns:xlink="http://www.w3.org/1999/xlink" role="img" width="112" height="90" viewbox="0 0 112 90"><title>SSL</title><desc>Generated by logo.svg, https://github.com/bubkoo/logo.svg</desc><path fill="#2b68a7" d="M15.66 70.99Q10.98 70.99 7.82 69.74Q4.65 68.50 3.05 66.42Q1.45 64.34 1.45 61.84Q1.45 59.41 2.98 58.19Q4.52 56.98 6.38 56.98Q6.38 59.92 7.43 62.38Q8.49 64.85 10.63 66.35Q12.78 67.86 16.10 67.86Q20.58 67.86 23.21 65.62Q25.83 63.38 25.83 59.60Q25.83 57.68 25.26 56.14Q24.68 54.61 22.95 53.07Q21.22 51.54 17.77 49.55Q13.74 47.25 11.21 44.24Q8.68 41.23 8.68 36.37Q8.68 32.72 10.54 29.94Q12.39 27.15 15.88 25.58Q19.37 24.02 24.23 24.02Q29.80 24.02 33.10 25.94Q36.39 27.86 36.39 30.93Q36.39 32.91 35.05 34.13Q33.70 35.34 30.76 35.34Q30.76 33.62 30.18 31.73Q29.61 29.84 28.10 28.53Q26.60 27.22 23.72 27.22Q21.48 27.22 19.50 28.08Q17.51 28.94 16.26 30.74Q15.02 32.53 15.02 35.28Q15.02 37.65 15.88 39.25Q16.74 40.85 18.54 42.19Q20.33 43.54 22.95 45.07Q27.75 47.82 30.09 50.77Q32.42 53.71 32.42 57.55Q32.42 63.95 27.94 67.47Q23.46 70.99 15.66 70.99ZM50.47 70.99Q45.80 70.99 42.63 69.74Q39.46 68.50 37.86 66.42Q36.26 64.34 36.26 61.84Q36.26 59.41 37.80 58.19Q39.34 56.98 41.19 56.98Q41.19 59.92 42.25 62.38Q43.30 64.85 45.45 66.35Q47.59 67.86 50.92 67.86Q55.40 67.86 58.02 65.62Q60.65 63.38 60.65 59.60Q60.65 57.68 60.07 56.14Q59.50 54.61 57.77 53.07Q56.04 51.54 52.58 49.55Q48.55 47.25 46.02 44.24Q43.50 41.23 43.50 36.37Q43.50 32.72 45.35 29.94Q47.21 27.15 50.70 25.58Q54.18 24.02 59.05 24.02Q64.62 24.02 67.91 25.94Q71.21 27.86 71.21 30.93Q71.21 32.91 69.86 34.13Q68.52 35.34 65.58 35.34Q65.58 33.62 65 31.73Q64.42 29.84 62.92 28.53Q61.42 27.22 58.54 27.22Q56.30 27.22 54.31 28.08Q52.33 28.94 51.08 30.74Q49.83 32.53 49.83 35.28Q49.83 37.65 50.70 39.25Q51.56 40.85 53.35 42.19Q55.14 43.54 57.77 45.07Q62.57 47.82 64.90 50.77Q67.24 53.71 67.24 57.55Q67.24 63.95 62.76 67.47Q58.28 70.99 50.47 70.99ZM69.35 70.35L69.93 67.66L70.76 67.66Q72.87 67.66 74.57 66.86Q76.26 66.06 76.90 63.06L83.56 31.70Q83.82 30.67 83.82 29.90Q83.82 28.24 82.54 27.79Q81.26 27.34 79.21 27.34L78.38 27.34L78.95 24.66L97.58 24.66L97 27.34L96.17 27.34Q94.06 27.34 92.36 28.08Q90.66 28.82 90.02 31.70L82.47 67.15L95.08 67.15Q98.02 67.15 99.62 65.30Q101.22 63.44 101.93 61.39L103.59 56.59L106.92 56.59L103.59 70.35L69.35 70.35Z"></path></svg>